<?xml version="1.0" encoding="UTF-8"?>
<svg xmlns="http://www.w3.org/2000/svg" xmlns:xlink="http://www.w3.org/1999/xlink" width="24px" height="24px" viewBox="0 0 24 24" version="1.1">
<g id="surface1">

<path style=" stroke:none;fill-rule:nonzero;fill:rgb(255,255,255);fill-opacity:1;" d="M 23.726562 3.191406 C 23.722656 2.199219 23.21875 1.28125 22.382812 0.742188 C 21.910156 0.4375 21.359375 0.273438 20.796875 0.273438 C 19.179688 0.273438 17.867188 1.578125 17.863281 3.191406 C 17.863281 3.964844 18.171875 4.667969 18.667969 5.191406 C 18.066406 5.90625 17.582031 6.710938 17.234375 7.578125 C 16.972656 7.539062 16.707031 7.519531 16.441406 7.519531 C 13.554688 7.519531 11.203125 9.859375 11.203125 12.734375 C 11.203125 15.117188 12.816406 17.132812 15.015625 17.753906 C 13.910156 20.566406 11.160156 22.570312 7.941406 22.570312 C 5.199219 22.570312 2.792969 21.113281 1.457031 18.9375 C 1.046875 19.027344 0.625 19.074219 0.207031 19.082031 C 1.675781 21.84375 4.59375 23.726562 7.941406 23.726562 C 11.738281 23.726562 14.972656 21.308594 16.1875 17.945312 C 16.269531 17.949219 16.355469 17.949219 16.441406 17.949219 C 19.332031 17.949219 21.683594 15.609375 21.683594 12.734375 C 21.683594 10.535156 20.304688 8.648438 18.363281 7.882812 C 18.671875 7.148438 19.097656 6.464844 19.617188 5.859375 C 19.78125 5.933594 19.953125 5.988281 20.128906 6.03125 C 20.34375 6.078125 20.566406 6.109375 20.796875 6.109375 C 22.414062 6.105469 23.722656 4.800781 23.726562 3.191406 Z M 16.441406 16.792969 C 14.195312 16.792969 12.363281 14.972656 12.363281 12.734375 C 12.363281 10.496094 14.195312 8.675781 16.441406 8.675781 C 18.691406 8.675781 20.519531 10.496094 20.519531 12.734375 C 20.519531 14.972656 18.691406 16.792969 16.441406 16.792969 Z M 20.796875 1.429688 C 20.902344 1.429688 21.003906 1.441406 21.105469 1.460938 C 21.945312 1.609375 22.5625 2.335938 22.566406 3.191406 C 22.5625 4.164062 21.773438 4.953125 20.796875 4.953125 C 19.820312 4.953125 19.027344 4.164062 19.027344 3.191406 C 19.027344 2.21875 19.820312 1.433594 20.796875 1.433594 Z M 20.796875 1.429688 "/>
</g>
</svg>
